<svg xmlns="http://www.w3.org/2000/svg" version="1.1" xmlns:xlink="http://www.w3.org/1999/xlink" xmlns:svgjs="http://svgjs.dev/svgjs" viewBox="0 0 800 800" opacity="1"><g stroke-width="3" stroke="hsl(205, 69%, 50%)" fill="none"><path d="M1037.4752342175739 246.59863848385703C1135.0064229832192 700.9733445205941 1323.2269981988256 1322.013902529232 1162.2612798945102 1489.5913893757024C1001.2955615901947 1657.168876222172 527.4914412612952 1232.2474464085972 264.839786356863 1050.9705753469134C2.18813145243098 869.6937042852292 35.41427724423693 909.1572295520923 -98.46666364676366 619.4624082796167C-232.34760453776414 329.76758700714095 -542.9091960587261 -66.46673178591845 -377.78872991993927 -339.5645667609713C-212.6682637811524 -612.6624017360243 399.2649146240965 -813.5245340266433 694.1115738194112 -691.4071996006376C988.9582330147259 -569.2898651746318 939.9440454519286 -207.7760675528798 1037.4752342175739 246.59863848385703C1135.0064229832192 700.9733445205941 1323.2269981988256 1322.013902529232 1162.2612798945102 1489.5913893757024 "></path><path d="M979.522973489698 260.54425286973515C1068.1876905493755 673.6121674485869 1239.2973043817447 1238.1944929109854 1092.9648331960034 1390.5376627714122C946.6323620102623 1542.88083263184 515.9013435294446 1156.5886237104078 277.12711179814266 991.7914681997863C38.352880066840726 826.9943126891644 68.55846715030066 862.8702447499493 -53.151479114245376 599.5113163204257C-174.8614253787913 336.15238789090245 -457.1901449433022 -24.060629193697082 -307.08063027167776 -272.33138826192703C-156.97111560005328 -520.602147330157 399.3317738592641 -703.2040857761743 667.37419130955 -592.1883272070781C935.4166087598362 -481.172568637982 890.8582564300204 -152.5236617091166 979.522973489698 260.54425286973515C1068.1876905493755 673.6121674485869 1239.2973043817447 1238.1944929109854 1092.9648331960034 1390.5376627714122 "></path><path d="M921.5706517266656 274.48971466772264C1001.3688970803755 646.2508377886891 1155.3675495295076 1154.3749307048477 1023.6683254623406 1291.4837835792323C891.9691013951735 1428.5926364536163 504.31118476243773 1080.929648424328 289.41437620426586 932.6122084647684C74.51756764609411 784.2947685052088 101.70259602120814 816.5831073599152 -7.836355616883338 579.5600717733439C-117.37530725497464 342.5370361867731 -371.4711548630345 18.34532081063344 -236.3725916585725 -205.0983623507734C-101.27402845411052 -428.5420455121804 399.398572059275 -592.883790113596 640.6367477645326 -492.9696074014094C881.87492346979 -393.0554246892229 841.7724063729559 -97.27140845324402 921.5706517266656 274.48971466772264C1001.3688970803755 646.2508377886891 1155.3675495295076 1154.3749307048477 1023.6683254623406 1291.4837835792323 "></path><path d="M863.6182689284772 288.43535957117865C934.5500425762191 618.88969123426 1071.4377336421146 1070.5555516041788 954.3717566935213 1192.4300874925204C837.3057797449285 1314.3046233808623 492.7209649602746 1005.2708562437167 301.7015795752329 873.4331318352192C110.68219419019124 741.595407426722 134.84666385695925 770.2961530753496 37.47870684532245 559.609010331731C-59.88925016631424 348.92186758811226 -285.752225817923 60.75145392043282 -165.66461408062344 -137.86515333415105C-45.5770023433239 -336.48176058873497 399.4653092241299 -482.56331134554887 613.899243184359 -393.7507044902719C828.3331771445878 -304.938097634995 792.686495280735 -42.0189720919027 863.6182689284772 288.43535957117865C934.5500425762191 618.88969123426 1071.4377336421146 1070.5555516041788 954.3717566935213 1192.4300874925204 "></path><path d="M805.666008200601 302.3809129219004C867.7313101423752 591.5284531270966 987.5080398250336 986.7360809507757 885.0753099950148 1093.3762998530747C782.6425801649962 1200.0165187553737 481.13086722842377 929.6119725103715 313.9889050165124 814.2539636529361C146.84694280460099 698.895954795501 167.99085376302287 724.0091072380503 82.79389137784074 539.657857337384C-2.4030710073413957 355.3066074367174 -200.03317470249902 103.15749547749783 -94.95651443236193 -70.63203587026305C10.12014583777517 -244.42156721802394 399.5321684592973 -372.2429241302361 587.1618606744976 -294.5318931318688C774.7915528896979 -216.82086213350146 743.6007062588269 13.233372716704253 805.666008200601 302.3809129219004C867.7313101423752 591.5284531270966 987.5080398250336 986.7360809507757 885.0753099950148 1093.3762998530747 "></path><path d="M747.7137779903032 316.32646627262227C800.9126082261096 564.1672150199333 903.578376525531 902.9166102973722 815.7788938140866 994.3225122136287C727.9794111026417 1085.728414129885 469.54080001415116 853.9530887770261 326.27626097536995 755.074795470653C183.01172193658886 656.19650216428 201.13507418666472 677.7220614007506 128.10910642793715 519.7067043430366C55.083138669209575 361.69134728532265 -114.31409306949695 145.56353703456296 -24.248384266522294 -3.39891840637506C65.81732453645236 -152.36137384731296 399.5990582120428 -261.92253691492334 560.4245086822144 -195.31308177346568C721.249959152386 -128.70362663200797 694.5149477544965 68.4857175253112 747.7137779903032 316.32646627262227C800.9126082261096 564.1672150199333 903.578376525531 902.9166102973722 815.7788938140866 994.3225122136287 "></path><path d="M689.7615172624271 330.2720806585004C734.0938757922659 536.8060379479263 819.6486827084505 819.0972006791255 746.4824471155798 895.2687856093389C673.3162115227093 971.4403705395528 457.9507022823004 778.2942660788367 338.5635864166495 695.895688323526C219.1764705509985 613.497110568215 234.27926409272845 631.4350765986073 173.42429096045544 499.7556123838457C112.56931782818248 368.07614816908404 -28.59504195407294 187.96963962678433 46.45971538173927 63.8342600926693C121.51447271755148 -60.30111944144568 399.6659174472102 -151.60208866445436 533.6871261723531 -96.09420937990626C667.7083348974962 -40.58633009535822 645.4291587325883 123.73812336907451 689.7615172624271 330.2720806585004C734.0938757922659 536.8060379479263 819.6486827084505 819.0972006791255 746.4824471155798 895.2687856093389 "></path><path d="M631.8091649818167 344.2176950443784C667.2750518056877 509.44486087591906 735.7188973386354 735.2777910608784 677.1859088643388 796.2150590050492C618.6529203900424 857.1523269492202 446.36051299771543 702.6354433806473 350.8508203051946 636.7165811763987C255.34112761267374 570.79771897215 267.4233624460578 585.1480917964639 218.73938394023935 479.8045204246546C170.055405434421 374.4609490528452 57.12391760861664 230.37574221900547 117.1677234772664 131.06743859171354C177.21152934591618 31.759134964421605 399.7326851296431 -41.28164041398537 506.9496521097576 3.1246630136531053C614.166619089872 47.53096644129158 596.3432781579456 178.9905292128377 631.8091649818167 344.2176950443784C667.2750518056877 509.44486087591906 735.7188973386354 735.2777910608784 677.1859088643388 796.2150590050492 "></path><path d="M573.8569042539407 358.16324839510025C600.4563193718438 482.08362276875573 651.7892035215546 651.4583204074752 607.8894621658324 697.1612713656034C563.9897208101099 742.8642223237316 434.7704152658646 626.9765596473021 363.13814574647404 577.5374129941156C291.5058762270835 528.0982663409291 300.5675523521214 538.8610459591644 264.05456847275764 459.85336743030734C227.54158459339385 380.84568890145033 142.8429687240406 272.7817837760706 187.87582312552792 198.30055605560153C232.90867752701524 123.81932833513258 399.79954436481046 69.03874680132736 480.2122695998962 102.34347437205622C560.6249948349821 135.64820194278508 547.2574891360373 234.24287402144466 573.8569042539407 358.16324839510025C600.4563193718438 482.08362276875573 651.7892035215546 651.4583204074752 607.8894621658324 697.1612713656034 "></path><path d="M515.9045977496974 372.1088475221892C533.637541161633 454.7224304379595 567.8594639281068 567.6388955304392 538.5929696909584 598.1075295025246C509.3264754538102 628.5761634746101 423.1802717576468 551.3177216903237 375.42542541138636 518.3582905881993C327.67057906512593 485.398859486075 333.71169648181797 492.57404589823193 309.36970722890874 439.9022602123273C285.02771797599956 387.23047452642254 228.56197406309735 315.18787110950274 258.58387699742224 265.53371929585677C288.6057799317471 215.8795674822108 399.8663578236106 179.35917979300734 453.47484131366787 201.56233150682652C507.0833248037251 223.76548322064576 498.1716543377619 289.49526460641886 515.9045977496974 372.1088475221892C533.637541161633 454.7224304379595 567.8594639281068 567.6388955304392 538.5929696909584 598.1075295025246 "></path><path d="M457.95229124545415 386.054400872911C466.81876295142195 427.36119233079614 483.9297243346589 483.819424877036 469.29647721608467 499.0537418630787C454.66323009751056 514.2880588491214 411.59012824942886 475.65883795697823 387.7127050762986 459.1791224059161C363.83528190316844 442.6994068548539 366.85584061151445 446.28700006093237 354.68484598505984 419.95110721798005C342.5138513586052 393.6152143750277 314.2809794021542 357.5939126665678 329.2919308693166 332.7668367597448C344.30288233647906 307.9397608529218 399.93317128241074 289.6795670083201 426.7374130274394 300.7811428652297C453.541654772468 311.8827187221393 449.0858195394864 344.74760941502586 457.95229124545415 386.054400872911C466.81876295142195 427.36119233079614 483.9297243346589 483.819424877036 469.29647721608467 499.0537418630787 "></path></g></svg>