<svg id="visual" viewBox="0 0 900 600" width="900" height="600" xmlns="http://www.w3.org/2000/svg" xmlns:xlink="http://www.w3.org/1999/xlink" version="1.1"><rect x="0" y="0" width="900" height="600" fill="#001220"></rect><defs><linearGradient id="grad1_0" x1="33.3%" y1="0%" x2="100%" y2="100%"><stop offset="20%" stop-color="#0066ff" stop-opacity="1"></stop><stop offset="80%" stop-color="#0066ff" stop-opacity="1"></stop></linearGradient></defs><defs><linearGradient id="grad1_1" x1="33.3%" y1="0%" x2="100%" y2="100%"><stop offset="20%" stop-color="#0066ff" stop-opacity="1"></stop><stop offset="80%" stop-color="#00408b" stop-opacity="1"></stop></linearGradient></defs><defs><linearGradient id="grad1_2" x1="33.3%" y1="0%" x2="100%" y2="100%"><stop offset="20%" stop-color="#001220" stop-opacity="1"></stop><stop offset="80%" stop-color="#00408b" stop-opacity="1"></stop></linearGradient></defs><defs><linearGradient id="grad2_0" x1="0%" y1="0%" x2="66.7%" y2="100%"><stop offset="20%" stop-color="#0066ff" stop-opacity="1"></stop><stop offset="80%" stop-color="#0066ff" stop-opacity="1"></stop></linearGradient></defs><defs><linearGradient id="grad2_1" x1="0%" y1="0%" x2="66.7%" y2="100%"><stop offset="20%" stop-color="#00408b" stop-opacity="1"></stop><stop offset="80%" stop-color="#0066ff" stop-opacity="1"></stop></linearGradient></defs><defs><linearGradient id="grad2_2" x1="0%" y1="0%" x2="66.7%" y2="100%"><stop offset="20%" stop-color="#00408b" stop-opacity="1"></stop><stop offset="80%" stop-color="#001220" stop-opacity="1"></stop></linearGradient></defs><g transform="translate(900, 0)"><path d="M0 459.7C-39.8 407.2 -79.7 354.6 -141.2 340.9C-202.7 327.2 -286 352.4 -325.1 325.1C-364.1 297.7 -359.1 217.9 -374.2 155C-389.3 92.1 -424.5 46 -459.7 0L0 0Z" fill="#002a53"></path><path d="M0 306.5C-26.6 271.4 -53.1 236.4 -94.1 227.3C-135.2 218.1 -190.7 234.9 -216.7 216.7C-242.8 198.5 -239.4 145.3 -249.4 103.3C-259.5 61.4 -283 30.7 -306.5 0L0 0Z" fill="#0055c6"></path><path d="M0 153.2C-13.3 135.7 -26.6 118.2 -47.1 113.6C-67.6 109.1 -95.3 117.5 -108.4 108.4C-121.4 99.2 -119.7 72.6 -124.7 51.7C-129.8 30.7 -141.5 15.3 -153.2 0L0 0Z" fill="#0066ff"></path></g><g transform="translate(0, 600)"><path d="M0 -459.7C48.2 -415 96.4 -370.3 142 -342.8C187.6 -315.2 230.6 -304.7 282.1 -282.1C333.7 -259.6 393.7 -225 424.7 -175.9C455.7 -126.9 457.7 -63.4 459.7 0L0 0Z" fill="#002a53"></path><path d="M0 -306.5C32.1 -276.7 64.2 -246.9 94.7 -228.5C125.1 -210.1 153.7 -203.1 188.1 -188.1C222.4 -173.1 262.5 -150 283.1 -117.3C303.8 -84.6 305.1 -42.3 306.5 0L0 0Z" fill="#0055c6"></path><path d="M0 -153.2C16.1 -138.3 32.1 -123.4 47.3 -114.3C62.5 -105.1 76.9 -101.6 94 -94C111.2 -86.5 131.2 -75 141.6 -58.6C151.9 -42.3 152.6 -21.1 153.2 0L0 0Z" fill="#0066ff"></path></g></svg>