<svg id="visual" viewBox="0 0 900 600" width="900" height="600" xmlns="http://www.w3.org/2000/svg" xmlns:xlink="http://www.w3.org/1999/xlink" version="1.1"><rect x="0" y="0" width="900" height="600" fill="#001220"></rect><defs><linearGradient id="grad1_0" x1="33.3%" y1="0%" x2="100%" y2="100%"><stop offset="20%" stop-color="#001220" stop-opacity="1"></stop><stop offset="80%" stop-color="#001220" stop-opacity="1"></stop></linearGradient></defs><defs><linearGradient id="grad2_0" x1="0%" y1="0%" x2="66.7%" y2="100%"><stop offset="20%" stop-color="#001220" stop-opacity="1"></stop><stop offset="80%" stop-color="#001220" stop-opacity="1"></stop></linearGradient></defs><g transform="translate(900, 0)"><path d="M0 486.7C-63.1 471 -126.2 455.3 -176 425C-225.8 394.7 -262.3 349.8 -310.4 310.4C-358.6 271 -418.4 237.1 -449.7 186.3C-481 135.4 -483.9 67.7 -486.7 0L0 0Z" fill="#002233"></path></g><g transform="translate(0, 600)"><path d="M0 -486.7C62.2 -477.7 124.4 -468.6 185.2 -447.2C246 -425.8 305.4 -392.1 344.2 -344.2C382.9 -296.3 401 -234.2 421.3 -174.5C441.6 -114.8 464.2 -57.4 486.7 0L0 0Z" fill="#002233"></path></g></svg>