<svg id="visual" viewBox="0 0 900 600" width="900" height="600" xmlns="http://www.w3.org/2000/svg" xmlns:xlink="http://www.w3.org/1999/xlink" version="1.1"><path d="M0 133L13.7 136C27.3 139 54.7 145 82 164C109.3 183 136.7 215 163.8 236C191 257 218 267 245.2 251C272.3 235 299.7 193 327 173C354.3 153 381.7 155 409 172C436.3 189 463.7 221 491 230C518.3 239 545.7 225 573 212C600.3 199 627.7 187 654.8 172C682 157 709 139 736.2 133C763.3 127 790.7 133 818 129C845.3 125 872.7 111 886.3 104L900 97L900 0L886.3 0C872.7 0 845.3 0 818 0C790.7 0 763.3 0 736.2 0C709 0 682 0 654.8 0C627.7 0 600.3 0 573 0C545.7 0 518.3 0 491 0C463.7 0 436.3 0 409 0C381.7 0 354.3 0 327 0C299.7 0 272.3 0 245.2 0C218 0 191 0 163.8 0C136.7 0 109.3 0 82 0C54.7 0 27.3 0 13.7 0L0 0Z" fill="#004cbb"></path><path d="M0 229L13.7 237C27.3 245 54.7 261 82 271C109.3 281 136.7 285 163.8 294C191 303 218 317 245.2 304C272.3 291 299.7 251 327 233C354.3 215 381.7 219 409 237C436.3 255 463.7 287 491 297C518.3 307 545.7 295 573 290C600.3 285 627.7 287 654.8 273C682 259 709 229 736.2 222C763.3 215 790.7 231 818 231C845.3 231 872.7 215 886.3 207L900 199L900 95L886.3 102C872.7 109 845.3 123 818 127C790.7 131 763.3 125 736.2 131C709 137 682 155 654.8 170C627.7 185 600.3 197 573 210C545.7 223 518.3 237 491 228C463.7 219 436.3 187 409 170C381.7 153 354.3 151 327 171C299.7 191 272.3 233 245.2 249C218 265 191 255 163.8 234C136.7 213 109.3 181 82 162C54.7 143 27.3 137 13.7 134L0 131Z" fill="#0059dd"></path><path d="M0 313L13.7 330C27.3 347 54.7 381 82 386C109.3 391 136.7 367 163.8 371C191 375 218 407 245.2 403C272.3 399 299.7 359 327 350C354.3 341 381.7 363 409 379C436.3 395 463.7 405 491 410C518.3 415 545.7 415 573 407C600.3 399 627.7 383 654.8 363C682 343 709 319 736.2 318C763.3 317 790.7 339 818 333C845.3 327 872.7 293 886.3 276L900 259L900 197L886.3 205C872.7 213 845.3 229 818 229C790.7 229 763.3 213 736.2 220C709 227 682 257 654.8 271C627.7 285 600.3 283 573 288C545.7 293 518.3 305 491 295C463.7 285 436.3 253 409 235C381.7 217 354.3 213 327 231C299.7 249 272.3 289 245.2 302C218 315 191 301 163.8 292C136.7 283 109.3 279 82 269C54.7 259 27.3 243 13.7 235L0 227Z" fill="#0066ff"></path><path d="M0 379L13.7 395C27.3 411 54.7 443 82 451C109.3 459 136.7 443 163.8 448C191 453 218 479 245.2 472C272.3 465 299.7 425 327 415C354.3 405 381.7 425 409 446C436.3 467 463.7 489 491 490C518.3 491 545.7 471 573 456C600.3 441 627.7 431 654.8 414C682 397 709 373 736.2 369C763.3 365 790.7 381 818 380C845.3 379 872.7 361 886.3 352L900 343L900 257L886.3 274C872.7 291 845.3 325 818 331C790.7 337 763.3 315 736.2 316C709 317 682 341 654.8 361C627.7 381 600.3 397 573 405C545.7 413 518.3 413 491 408C463.7 403 436.3 393 409 377C381.7 361 354.3 339 327 348C299.7 357 272.3 397 245.2 401C218 405 191 373 163.8 369C136.7 365 109.3 389 82 384C54.7 379 27.3 345 13.7 328L0 311Z" fill="#3c80ff"></path><path d="M0 601L13.7 601C27.3 601 54.7 601 82 601C109.3 601 136.7 601 163.8 601C191 601 218 601 245.2 601C272.3 601 299.7 601 327 601C354.3 601 381.7 601 409 601C436.3 601 463.7 601 491 601C518.3 601 545.7 601 573 601C600.3 601 627.7 601 654.8 601C682 601 709 601 736.2 601C763.3 601 790.7 601 818 601C845.3 601 872.7 601 886.3 601L900 601L900 341L886.3 350C872.7 359 845.3 377 818 378C790.7 379 763.3 363 736.2 367C709 371 682 395 654.8 412C627.7 429 600.3 439 573 454C545.7 469 518.3 489 491 488C463.7 487 436.3 465 409 444C381.7 423 354.3 403 327 413C299.7 423 272.3 463 245.2 470C218 477 191 451 163.8 446C136.7 441 109.3 457 82 449C54.7 441 27.3 409 13.7 393L0 377Z" fill="#6198ff"></path></svg>