<svg id="visual" viewBox="0 0 900 600" width="900" height="600" xmlns="http://www.w3.org/2000/svg" xmlns:xlink="http://www.w3.org/1999/xlink" version="1.1"><rect x="0" y="0" width="900" height="600" fill="#001e2d"></rect><path d="M0 175L21.5 169.3C43 163.7 86 152.3 128.8 149.8C171.7 147.3 214.3 153.7 257.2 173.3C300 193 343 226 385.8 221.5C428.7 217 471.3 175 514.2 155.2C557 135.3 600 137.7 642.8 139.7C685.7 141.7 728.3 143.3 771.2 158.5C814 173.7 857 202.3 878.5 216.7L900 231L900 0L878.5 0C857 0 814 0 771.2 0C728.3 0 685.7 0 642.8 0C600 0 557 0 514.2 0C471.3 0 428.7 0 385.8 0C343 0 300 0 257.2 0C214.3 0 171.7 0 128.8 0C86 0 43 0 21.5 0L0 0Z" fill="#007bff" stroke-linecap="round" stroke-linejoin="miter"></path></svg>