<svg id="visual" viewBox="0 0 900 600" width="900" height="600" xmlns="http://www.w3.org/2000/svg" xmlns:xlink="http://www.w3.org/1999/xlink" version="1.1"><rect x="0" y="0" width="900" height="600" fill="#0066FF"></rect><path d="M0 236L21.5 242.8C43 249.7 86 263.3 128.8 260.8C171.7 258.3 214.3 239.7 257.2 235.8C300 232 343 243 385.8 236.8C428.7 230.7 471.3 207.3 514.2 216.5C557 225.7 600 267.3 642.8 272C685.7 276.7 728.3 244.3 771.2 224.5C814 204.7 857 197.3 878.5 193.7L900 190L900 0L878.5 0C857 0 814 0 771.2 0C728.3 0 685.7 0 642.8 0C600 0 557 0 514.2 0C471.3 0 428.7 0 385.8 0C343 0 300 0 257.2 0C214.3 0 171.7 0 128.8 0C86 0 43 0 21.5 0L0 0Z" fill="#282c34" stroke-linecap="round" stroke-linejoin="miter"></path></svg>