<svg id="visual" viewBox="0 0 900 600" width="900" height="600" xmlns="http://www.w3.org/2000/svg" xmlns:xlink="http://www.w3.org/1999/xlink" version="1.1"><rect x="0" y="0" width="900" height="600" fill="#0066FF"></rect><path d="M0 330L21.5 340.2C43 350.3 86 370.7 128.8 374C171.7 377.3 214.3 363.7 257.2 362C300 360.3 343 370.7 385.8 367.3C428.7 364 471.3 347 514.2 347.2C557 347.3 600 364.7 642.8 379.8C685.7 395 728.3 408 771.2 414.5C814 421 857 421 878.5 421L900 421L900 601L878.5 601C857 601 814 601 771.2 601C728.3 601 685.7 601 642.8 601C600 601 557 601 514.2 601C471.3 601 428.7 601 385.8 601C343 601 300 601 257.2 601C214.3 601 171.7 601 128.8 601C86 601 43 601 21.5 601L0 601Z" fill="#001d2c" stroke-linecap="round" stroke-linejoin="miter"></path></svg>